<?xml version="1.0" encoding="utf-8"?>
<!-- Generator: Adobe Illustrator 24.2.3, SVG Export Plug-In . SVG Version: 6.00 Build 0)  -->
<svg version="1.1" id="Layer_1" xmlns="http://www.w3.org/2000/svg" xmlns:xlink="http://www.w3.org/1999/xlink" x="0px" y="0px"
	 viewBox="0 0 595.28 841.89" style="enable-background:new 0 0 595.28 841.89;" xml:space="preserve">
<style type="text/css">
	.st0{fill:#82B440;}
	.st1{font-family:'FranklinGothic-Demi';}
	.st2{font-size:190.9134px;}
	.st3{font-size:200.9615px;}
</style>
<rect x="4.69" y="352.19" class="st0" width="283.24" height="22.94"/>
<rect x="317.79" y="352.19" class="st0" width="277.49" height="24.77"/>
<polygon class="st0" points="287.68,370.61 281.18,367.69 291.25,126.85 297.75,129.78 "/>
<polygon class="st0" points="308.48,459.64 303.14,462.49 291.11,131.52 296.45,128.67 "/>
<path class="st0" d="M308.17,459.48l-4.1-6.95c-0.16-0.28-0.23-0.97-0.15-1.54l13.27-97.43c0.08-0.58,0.27-0.82,0.44-0.54l4.1,6.95
	c0.16,0.28,0.23,0.97,0.15,1.54l-13.27,97.43C308.53,459.51,308.34,459.75,308.17,459.48z"/>
<text transform="matrix(0.4092 0 0 1 13.5474 335.1769)" class="st1 st2">HEALTH </text>
<text transform="matrix(0.4325 0 0 1 321.916 333.212)" class="st1 st3">CARE</text>
</svg>
